<svg width="145" height="204" viewBox="0 0 145 204" fill="none" xmlns="http://www.w3.org/2000/svg">
<g opacity="0.5">
<path d="M16.3353 76.8862C16.3353 14.1139 54.8796 2 83.5126 2C110.015 2 138.405 26.5306 111.044 36.294M58.1834 40.747C71.37 41.7089 87.22 41.4754 103.335 38.3418C106.285 37.7682 108.845 37.0788 111.044 36.294M20.7403 137.017L2.0188 137.456V76.8862L117.652 75.0794M20.7403 137.017L120.956 134.668M20.7403 137.017C20.7403 141.296 27.5849 152.762 44.9682 158.854M120.956 134.668L142.981 134.152V74.6836L117.652 75.0794M120.956 134.668C120.956 140.608 113.49 152.631 95.6568 158.854M44.9682 158.854C51.7394 161.227 60.1097 162.785 70.2974 162.785C80.3962 162.785 88.7942 161.249 95.6568 158.854M44.9682 158.854V194.722M95.6568 158.854V194.722M111.044 36.294C115.449 51.1475 117.285 68.3399 117.652 75.0794M73.9999 89V118.5M58.4999 104L89.4999 103" stroke="#CCC2DC" stroke-width="2.9992" stroke-linecap="round" stroke-linejoin="round"/>
<path d="M44.9683 194.722C55.9809 192.519 59.2847 195.823 62.5885 199.127C56.7151 202.064 44.9683 205.294 44.9683 194.722Z" fill="#CCC2DC" stroke="#CCC2DC" stroke-width="2.20253" stroke-linejoin="round"/>
<path d="M95.6567 194.722C99.6846 193.988 108.621 193.841 112.145 199.127C106.649 202.064 95.6567 205.294 95.6567 194.722Z" fill="#CCC2DC" stroke="#CCC2DC" stroke-width="2.20253" stroke-linejoin="round"/>
<path d="M134.171 83.4938C129.766 83.4938 126.462 79.0888 129.766 71.3799C132.702 71.3799 137.695 73.8027 134.171 83.4938Z" fill="#CCC2DC" stroke="#CCC2DC" stroke-width="2.20253" stroke-linejoin="round"/>
<path d="M10.829 83.4938C6.42393 83.4938 3.12013 79.0888 6.42393 71.3799C9.36064 71.3799 14.3531 73.8027 10.829 83.4938Z" fill="#CCC2DC" stroke="#CCC2DC" stroke-width="2.20253" stroke-linejoin="round"/>
<path d="M71.3987 24.0254C71.3987 20.7216 76.905 20.7216 76.905 24.0254C76.905 27.3292 71.3987 27.3292 71.3987 24.0254Z" fill="#CCC2DC"/>
<path d="M102.234 19.6203C102.234 16.3165 107.741 16.3165 107.741 19.6203C107.741 22.9241 102.234 22.9241 102.234 19.6203Z" fill="#CCC2DC"/>
</g>
</svg>
